<svg viewBox="0 0 24 24" xmlns="http://www.w3.org/2000/svg"><g id="Layer_2" data-name="Layer 2"><path d="m14 19h-4a1 1 0 0 1 0-2h4a1 1 0 0 1 0 2zm9-3v-4a3.0033 3.0033 0 0 0 -3-3h-1.18l-.5176-2.5884a3.0079 3.0079 0 0 0 -2.9424-2.4116h-8.006a2.9861 2.9861 0 0 0 -2.7856 1.8857l-1.2793 3.1993a3.006 3.006 0 0 0 -2.2891 2.915v4a1 1 0 0 0 2 0v-4a1.0013 1.0013 0 0 1 1-1 1.0011 1.0011 0 0 0 .9287-.6284l1.4971-3.7427a.9942.9942 0 0 1 .9282-.6289h8.006a1.0035 1.0035 0 0 1 .9809.8042l.6782 3.3921a1 1 0 0 0 .9809.8037h2a1.0013 1.0013 0 0 1 1 1v4a1 1 0 0 0 2 0z" fill="#231f20"></path><path d="m7 22a4 4 0 1 1 4-4 4.0045 4.0045 0 0 1 -4 4zm0-6a2 2 0 1 0 2 2 2.002 2.002 0 0 0 -2-2zm10 6a4 4 0 1 1 4-4 4.0045 4.0045 0 0 1 -4 4zm0-6a2 2 0 1 0 2 2 2.002 2.002 0 0 0 -2-2zm-1-6a1 1 0 0 0 -1-1h-2a1 1 0 0 0 0 2h2a1 1 0 0 0 1-1z" fill="#5a4ef6" style="fill: rgb(26, 22, 80);"></path></g></svg>